<svg width="247" height="53" viewBox="0 0 247 53" fill="none" xmlns="http://www.w3.org/2000/svg">
<path d="M10.33 13.6L8.35 8.34C8.19 7.93333 8.02667 7.41667 7.86 6.79C7.78667 7.10333 7.70667 7.39333 7.62 7.66C7.53333 7.92 7.45333 8.15 7.38 8.35L5.4 13.6H10.33ZM14.76 19H12.95C12.7433 19 12.5767 18.95 12.45 18.85C12.3233 18.7433 12.2267 18.6133 12.16 18.46L10.96 15.28H4.76L3.56 18.46C3.50667 18.5933 3.41333 18.7167 3.28 18.83C3.14667 18.9433 2.98 19 2.78 19H0.97L6.68 4.6H9.05L14.76 19ZM18.3914 4.2V19H16.2414V4.2H18.3914ZM23.4352 4.2V19H21.2852V4.2H23.4352ZM45.3994 11.8C45.3994 12.8667 45.226 13.85 44.8794 14.75C44.5327 15.65 44.0427 16.4267 43.4094 17.08C42.7827 17.7267 42.026 18.2333 41.1394 18.6C40.2594 18.9667 39.2794 19.15 38.1994 19.15C37.126 19.15 36.146 18.9667 35.2594 18.6C34.3794 18.2333 33.6227 17.7267 32.9894 17.08C32.356 16.4267 31.866 15.65 31.5194 14.75C31.1727 13.85 30.9994 12.8667 30.9994 11.8C30.9994 10.7333 31.1727 9.75 31.5194 8.85C31.866 7.95 32.356 7.17333 32.9894 6.52C33.6227 5.86667 34.3794 5.35667 35.2594 4.99C36.146 4.62333 37.126 4.44 38.1994 4.44C39.2794 4.44 40.2594 4.62333 41.1394 4.99C42.026 5.35667 42.7827 5.86667 43.4094 6.52C44.0427 7.17333 44.5327 7.95 44.8794 8.85C45.226 9.75 45.3994 10.7333 45.3994 11.8ZM43.0094 11.8C43.0094 10.9733 42.896 10.23 42.6694 9.57C42.4494 8.91 42.1294 8.35 41.7094 7.89C41.296 7.43 40.7927 7.07667 40.1994 6.83C39.606 6.58333 38.9394 6.46 38.1994 6.46C37.466 6.46 36.8027 6.58333 36.2094 6.83C35.616 7.07667 35.1094 7.43 34.6894 7.89C34.2694 8.35 33.946 8.91 33.7194 9.57C33.4927 10.23 33.3794 10.9733 33.3794 11.8C33.3794 12.6333 33.4927 13.38 33.7194 14.04C33.946 14.7 34.2694 15.26 34.6894 15.72C35.1094 16.1733 35.616 16.5233 36.2094 16.77C36.8027 17.01 37.466 17.13 38.1994 17.13C38.9394 17.13 39.606 17.01 40.1994 16.77C40.7927 16.5233 41.296 16.1733 41.7094 15.72C42.1294 15.26 42.4494 14.7 42.6694 14.04C42.896 13.38 43.0094 12.6333 43.0094 11.8ZM49.6173 10.69C49.9373 10.0433 50.324 9.53667 50.7773 9.17C51.2307 8.79667 51.774 8.61 52.4073 8.61C52.6273 8.61 52.834 8.63667 53.0273 8.69C53.2207 8.73667 53.394 8.81 53.5473 8.91L53.3973 10.53C53.3707 10.6433 53.3273 10.7233 53.2673 10.77C53.214 10.81 53.1407 10.83 53.0473 10.83C52.9473 10.83 52.804 10.8133 52.6173 10.78C52.4307 10.74 52.234 10.72 52.0273 10.72C51.7273 10.72 51.4607 10.7633 51.2273 10.85C51.0007 10.9367 50.794 11.0633 50.6073 11.23C50.4273 11.3967 50.2673 11.6 50.1273 11.84C49.9873 12.08 49.8573 12.3533 49.7373 12.66V19H47.5873V8.8H48.8373C49.064 8.8 49.2207 8.84333 49.3073 8.93C49.394 9.01 49.454 9.15333 49.4873 9.36L49.6173 10.69ZM61.3481 11.31C61.0481 10.9233 60.7181 10.6533 60.3581 10.5C59.9981 10.3467 59.6081 10.27 59.1881 10.27C58.3481 10.27 57.6915 10.58 57.2181 11.2C56.7448 11.8133 56.5081 12.7233 56.5081 13.93C56.5081 14.5567 56.5615 15.0933 56.6681 15.54C56.7748 15.98 56.9281 16.34 57.1281 16.62C57.3281 16.9 57.5715 17.1033 57.8581 17.23C58.1448 17.3567 58.4681 17.42 58.8281 17.42C59.3748 17.42 59.8448 17.3033 60.2381 17.07C60.6381 16.83 61.0081 16.4933 61.3481 16.06V11.31ZM63.4981 4.2V19H62.1981C61.9115 19 61.7281 18.8633 61.6481 18.59L61.4581 17.48C61.0315 17.98 60.5448 18.3833 59.9981 18.69C59.4581 18.9967 58.8281 19.15 58.1081 19.15C57.5348 19.15 57.0148 19.0367 56.5481 18.81C56.0815 18.5767 55.6815 18.24 55.3481 17.8C55.0148 17.36 54.7548 16.8167 54.5681 16.17C54.3881 15.5167 54.2981 14.77 54.2981 13.93C54.2981 13.17 54.3981 12.4667 54.5981 11.82C54.8048 11.1733 55.0981 10.6133 55.4781 10.14C55.8581 9.66 56.3181 9.28667 56.8581 9.02C57.4048 8.74667 58.0148 8.61 58.6881 8.61C59.2881 8.61 59.7981 8.70667 60.2181 8.9C60.6381 9.08667 61.0148 9.35 61.3481 9.69V4.2H63.4981ZM73.0172 12.75C73.0172 12.39 72.9639 12.0567 72.8572 11.75C72.7572 11.4367 72.6072 11.1667 72.4072 10.94C72.2072 10.7067 71.9572 10.5267 71.6572 10.4C71.3639 10.2667 71.0239 10.2 70.6372 10.2C69.8572 10.2 69.2439 10.4233 68.7972 10.87C68.3505 11.3167 68.0672 11.9433 67.9472 12.75H73.0172ZM67.8872 14.07C67.9139 14.65 68.0039 15.1533 68.1572 15.58C68.3105 16 68.5139 16.35 68.7672 16.63C69.0272 16.91 69.3339 17.12 69.6872 17.26C70.0472 17.3933 70.4472 17.46 70.8872 17.46C71.3072 17.46 71.6705 17.4133 71.9772 17.32C72.2839 17.22 72.5505 17.1133 72.7772 17C73.0039 16.88 73.1972 16.7733 73.3572 16.68C73.5172 16.58 73.6639 16.53 73.7972 16.53C73.9705 16.53 74.1039 16.5967 74.1972 16.73L74.8072 17.52C74.5539 17.82 74.2672 18.0733 73.9472 18.28C73.6272 18.4867 73.2872 18.6567 72.9272 18.79C72.5672 18.9167 72.1972 19.0067 71.8172 19.06C71.4372 19.12 71.0672 19.15 70.7072 19.15C70.0005 19.15 69.3439 19.0333 68.7372 18.8C68.1372 18.56 67.6139 18.21 67.1672 17.75C66.7272 17.29 66.3805 16.72 66.1272 16.04C65.8805 15.36 65.7572 14.5767 65.7572 13.69C65.7572 12.9833 65.8672 12.3233 66.0872 11.71C66.3139 11.0967 66.6339 10.5633 67.0472 10.11C67.4672 9.65667 67.9739 9.3 68.5672 9.04C69.1672 8.77333 69.8439 8.64 70.5972 8.64C71.2239 8.64 71.8039 8.74333 72.3372 8.95C72.8705 9.15 73.3305 9.44667 73.7172 9.84C74.1039 10.2333 74.4039 10.7167 74.6172 11.29C74.8372 11.8567 74.9472 12.5033 74.9472 13.23C74.9472 13.5633 74.9105 13.7867 74.8372 13.9C74.7639 14.0133 74.6305 14.07 74.4372 14.07H67.8872ZM79.1822 10.69C79.5022 10.0433 79.8889 9.53667 80.3422 9.17C80.7955 8.79667 81.3389 8.61 81.9722 8.61C82.1922 8.61 82.3989 8.63667 82.5922 8.69C82.7855 8.73667 82.9589 8.81 83.1122 8.91L82.9622 10.53C82.9355 10.6433 82.8922 10.7233 82.8322 10.77C82.7789 10.81 82.7055 10.83 82.6122 10.83C82.5122 10.83 82.3689 10.8133 82.1822 10.78C81.9955 10.74 81.7989 10.72 81.5922 10.72C81.2922 10.72 81.0255 10.7633 80.7922 10.85C80.5655 10.9367 80.3589 11.0633 80.1722 11.23C79.9922 11.3967 79.8322 11.6 79.6922 11.84C79.5522 12.08 79.4222 12.3533 79.3022 12.66V19H77.1522V8.8H78.4022C78.6289 8.8 78.7855 8.84333 78.8722 8.93C78.9589 9.01 79.0189 9.15333 79.0522 9.36L79.1822 10.69ZM90.7664 10.65C90.7131 10.7433 90.6531 10.81 90.5864 10.85C90.5197 10.89 90.4364 10.91 90.3364 10.91C90.2231 10.91 90.0997 10.8767 89.9664 10.81C89.8331 10.7367 89.6764 10.6567 89.4964 10.57C89.3164 10.4833 89.1031 10.4067 88.8564 10.34C88.6164 10.2667 88.3331 10.23 88.0064 10.23C87.7397 10.23 87.4964 10.2633 87.2764 10.33C87.0631 10.39 86.8797 10.48 86.7264 10.6C86.5797 10.7133 86.4664 10.85 86.3864 11.01C86.3064 11.1633 86.2664 11.33 86.2664 11.51C86.2664 11.75 86.3397 11.95 86.4864 12.11C86.6331 12.27 86.8264 12.41 87.0664 12.53C87.3064 12.6433 87.5797 12.7467 87.8864 12.84C88.1931 12.9333 88.5064 13.0333 88.8264 13.14C89.1464 13.2467 89.4597 13.37 89.7664 13.51C90.0731 13.65 90.3464 13.8233 90.5864 14.03C90.8264 14.23 91.0197 14.4767 91.1664 14.77C91.3131 15.0567 91.3864 15.4067 91.3864 15.82C91.3864 16.3 91.2997 16.7433 91.1264 17.15C90.9531 17.5567 90.6997 17.91 90.3664 18.21C90.0331 18.51 89.6164 18.7433 89.1164 18.91C88.6231 19.0767 88.0564 19.16 87.4164 19.16C87.0631 19.16 86.7197 19.1267 86.3864 19.06C86.0597 19 85.7464 18.9167 85.4464 18.81C85.1531 18.6967 84.8764 18.5633 84.6164 18.41C84.3631 18.2567 84.1364 18.09 83.9364 17.91L84.4364 17.09C84.4964 16.99 84.5697 16.9133 84.6564 16.86C84.7497 16.8 84.8631 16.77 84.9964 16.77C85.1364 16.77 85.2731 16.8167 85.4064 16.91C85.5464 16.9967 85.7064 17.0933 85.8864 17.2C86.0731 17.3067 86.2964 17.4067 86.5564 17.5C86.8164 17.5867 87.1397 17.63 87.5264 17.63C87.8464 17.63 88.1231 17.5933 88.3564 17.52C88.5897 17.44 88.7831 17.3333 88.9364 17.2C89.0897 17.0667 89.2031 16.9167 89.2764 16.75C89.3497 16.5767 89.3864 16.3933 89.3864 16.2C89.3864 15.94 89.3131 15.7267 89.1664 15.56C89.0197 15.3933 88.8231 15.25 88.5764 15.13C88.3364 15.01 88.0597 14.9033 87.7464 14.81C87.4397 14.7167 87.1264 14.6167 86.8064 14.51C86.4864 14.4033 86.1697 14.28 85.8564 14.14C85.5497 14 85.2731 13.8233 85.0264 13.61C84.7864 13.39 84.5931 13.1267 84.4464 12.82C84.2997 12.5067 84.2264 12.1267 84.2264 11.68C84.2264 11.2733 84.3064 10.8867 84.4664 10.52C84.6331 10.1533 84.8731 9.83 85.1864 9.55C85.5064 9.27 85.8964 9.05 86.3564 8.89C86.8231 8.72333 87.3597 8.64 87.9664 8.64C88.6531 8.64 89.2764 8.75 89.8364 8.97C90.3964 9.19 90.8664 9.49 91.2464 9.87L90.7664 10.65Z" fill="#333333"/>
<path d="M1.36 50L4.456 41.6H5.524L8.608 50H7.54L6.772 47.84H3.196L2.416 50H1.36ZM3.496 47.024H6.472L4.984 42.872L3.496 47.024ZM9.79675 50V41.36H10.8048V50H9.79675ZM12.4569 50V41.36H13.4649V50H12.4569ZM22.1688 50.144C21.3448 50.144 20.6208 49.964 19.9968 49.604C19.3808 49.236 18.8968 48.724 18.5448 48.068C18.2008 47.412 18.0288 46.656 18.0288 45.8C18.0288 44.944 18.2008 44.192 18.5448 43.544C18.8968 42.888 19.3808 42.376 19.9968 42.008C20.6208 41.64 21.3448 41.456 22.1688 41.456C23.0008 41.456 23.7248 41.64 24.3408 42.008C24.9648 42.376 25.4488 42.888 25.7928 43.544C26.1368 44.192 26.3088 44.944 26.3088 45.8C26.3088 46.656 26.1368 47.412 25.7928 48.068C25.4488 48.724 24.9648 49.236 24.3408 49.604C23.7248 49.964 23.0008 50.144 22.1688 50.144ZM22.1688 49.256C22.7848 49.256 23.3248 49.12 23.7888 48.848C24.2608 48.568 24.6248 48.172 24.8808 47.66C25.1448 47.14 25.2768 46.52 25.2768 45.8C25.2768 45.08 25.1448 44.464 24.8808 43.952C24.6248 43.44 24.2608 43.048 23.7888 42.776C23.3248 42.496 22.7848 42.356 22.1688 42.356C21.5528 42.356 21.0088 42.496 20.5368 42.776C20.0728 43.048 19.7088 43.44 19.4448 43.952C19.1888 44.464 19.0608 45.08 19.0608 45.8C19.0608 46.52 19.1888 47.14 19.4448 47.66C19.7088 48.172 20.0728 48.568 20.5368 48.848C21.0088 49.12 21.5528 49.256 22.1688 49.256ZM27.703 50V44.048H28.615L28.699 45.188C28.883 44.796 29.163 44.484 29.539 44.252C29.915 44.02 30.379 43.904 30.931 43.904V44.96H30.655C30.303 44.96 29.979 45.024 29.683 45.152C29.387 45.272 29.151 45.48 28.975 45.776C28.799 46.072 28.711 46.48 28.711 47V50H27.703ZM34.5397 50.144C33.9477 50.144 33.4277 50.008 32.9797 49.736C32.5397 49.464 32.1957 49.092 31.9477 48.62C31.7077 48.148 31.5877 47.612 31.5877 47.012C31.5877 46.412 31.7117 45.88 31.9597 45.416C32.2077 44.944 32.5517 44.576 32.9917 44.312C33.4317 44.04 33.9517 43.904 34.5517 43.904C35.0397 43.904 35.4717 44.004 35.8477 44.204C36.2237 44.404 36.5157 44.684 36.7237 45.044V41.36H37.7317V50H36.8197L36.7237 49.016C36.5317 49.304 36.2557 49.564 35.8957 49.796C35.5357 50.028 35.0837 50.144 34.5397 50.144ZM34.6477 49.268C35.0477 49.268 35.3997 49.176 35.7037 48.992C36.0157 48.8 36.2557 48.536 36.4237 48.2C36.5997 47.864 36.6877 47.472 36.6877 47.024C36.6877 46.576 36.5997 46.184 36.4237 45.848C36.2557 45.512 36.0157 45.252 35.7037 45.068C35.3997 44.876 35.0477 44.78 34.6477 44.78C34.2557 44.78 33.9037 44.876 33.5917 45.068C33.2877 45.252 33.0477 45.512 32.8717 45.848C32.7037 46.184 32.6197 46.576 32.6197 47.024C32.6197 47.472 32.7037 47.864 32.8717 48.2C33.0477 48.536 33.2877 48.8 33.5917 48.992C33.9037 49.176 34.2557 49.268 34.6477 49.268ZM42.0509 50.144C41.4829 50.144 40.9789 50.016 40.5389 49.76C40.0989 49.496 39.7509 49.132 39.4949 48.668C39.2469 48.204 39.1229 47.656 39.1229 47.024C39.1229 46.4 39.2469 45.856 39.4949 45.392C39.7429 44.92 40.0869 44.556 40.5269 44.3C40.9749 44.036 41.4909 43.904 42.0749 43.904C42.6509 43.904 43.1469 44.036 43.5629 44.3C43.9869 44.556 44.3109 44.896 44.5349 45.32C44.7589 45.744 44.8709 46.2 44.8709 46.688C44.8709 46.776 44.8669 46.864 44.8589 46.952C44.8589 47.04 44.8589 47.14 44.8589 47.252H40.1189C40.1429 47.708 40.2469 48.088 40.4309 48.392C40.6229 48.688 40.8589 48.912 41.1389 49.064C41.4269 49.216 41.7309 49.292 42.0509 49.292C42.4669 49.292 42.8149 49.196 43.0949 49.004C43.3749 48.812 43.5789 48.552 43.7069 48.224H44.7029C44.5429 48.776 44.2349 49.236 43.7789 49.604C43.3309 49.964 42.7549 50.144 42.0509 50.144ZM42.0509 44.756C41.5709 44.756 41.1429 44.904 40.7669 45.2C40.3989 45.488 40.1869 45.912 40.1309 46.472H43.8749C43.8509 45.936 43.6669 45.516 43.3229 45.212C42.9789 44.908 42.5549 44.756 42.0509 44.756ZM46.2069 50V44.048H47.1189L47.2029 45.188C47.3869 44.796 47.6669 44.484 48.0429 44.252C48.4189 44.02 48.8829 43.904 49.4349 43.904V44.96H49.1589C48.8069 44.96 48.4829 45.024 48.1869 45.152C47.8909 45.272 47.6549 45.48 47.4789 45.776C47.3029 46.072 47.2149 46.48 47.2149 47V50H46.2069ZM52.8463 50.144C52.1343 50.144 51.5423 49.964 51.0703 49.604C50.5983 49.244 50.3223 48.756 50.2423 48.14H51.2743C51.3383 48.452 51.5023 48.724 51.7663 48.956C52.0383 49.18 52.4023 49.292 52.8583 49.292C53.2823 49.292 53.5943 49.204 53.7943 49.028C53.9943 48.844 54.0943 48.628 54.0943 48.38C54.0943 48.02 53.9623 47.78 53.6983 47.66C53.4423 47.54 53.0783 47.432 52.6063 47.336C52.2863 47.272 51.9663 47.18 51.6463 47.06C51.3263 46.94 51.0583 46.772 50.8423 46.556C50.6263 46.332 50.5183 46.04 50.5183 45.68C50.5183 45.16 50.7103 44.736 51.0943 44.408C51.4863 44.072 52.0143 43.904 52.6783 43.904C53.3103 43.904 53.8263 44.064 54.2263 44.384C54.6343 44.696 54.8703 45.144 54.9343 45.728H53.9383C53.8983 45.424 53.7663 45.188 53.5423 45.02C53.3263 44.844 53.0343 44.756 52.6663 44.756C52.3063 44.756 52.0263 44.832 51.8263 44.984C51.6343 45.136 51.5383 45.336 51.5383 45.584C51.5383 45.824 51.6623 46.012 51.9103 46.148C52.1663 46.284 52.5103 46.4 52.9423 46.496C53.3103 46.576 53.6583 46.676 53.9863 46.796C54.3223 46.908 54.5943 47.08 54.8023 47.312C55.0183 47.536 55.1263 47.864 55.1263 48.296C55.1343 48.832 54.9303 49.276 54.5143 49.628C54.1063 49.972 53.5503 50.144 52.8463 50.144Z" fill="#377DFF"/>
</svg>
